<?xml version="1.0" encoding="UTF-8" standalone="no"?>
<!DOCTYPE svg PUBLIC "-//W3C//DTD SVG 1.1//EN" "http://www.w3.org/Graphics/SVG/1.1/DTD/svg11.dtd">
<!-- Generiert durch Microsoft Visio, SVG Export Klassendiagramm.svg Page-1 -->
<svg xmlns="http://www.w3.org/2000/svg" xmlns:xlink="http://www.w3.org/1999/xlink" xmlns:ev="http://www.w3.org/2001/xml-events"
		width="8.26772in" height="11.6929in" viewBox="0 0 595.276 841.89" xml:space="preserve" color-interpolation-filters="sRGB"
		class="st13">
	<style type="text/css">
	<![CDATA[
		.st1 {fill:#f2f2f2;stroke:#ffffff;stroke-linecap:round;stroke-linejoin:round;stroke-width:0.5}
		.st2 {fill:#5b9bd5;stroke:#ffffff;stroke-linecap:round;stroke-linejoin:round;stroke-width:0.5}
		.st3 {fill:#ffffff;font-family:Arial;font-size:1.00001em}
		.st4 {fill:#5b9bd5;fill-opacity:0}
		.st5 {stroke:#5b9bd5;stroke-linecap:round;stroke-linejoin:round;stroke-width:0.5;visibility:hidden}
		.st6 {fill:#5b9bd5;font-family:Arial;font-size:0.833336em}
		.st7 {fill:#5b9bd5}
		.st8 {stroke:#5592c9;stroke-dasharray:1,0.5;stroke-linecap:butt;stroke-width:0.5}
		.st9 {font-size:1em}
		.st10 {stroke:#5592c9;stroke-linecap:round;stroke-linejoin:round;stroke-width:0.5}
		.st11 {marker-start:url(#mrkr22-140);stroke:#5592c9;stroke-linecap:round;stroke-linejoin:round;stroke-width:0.5}
		.st12 {fill:#5592c9;fill-opacity:1;stroke:#5592c9;stroke-opacity:1;stroke-width:0.16556291390728}
		.st13 {fill:none;fill-rule:evenodd;font-size:12px;overflow:visible;stroke-linecap:square;stroke-miterlimit:3}
	]]>
	</style>

	<defs id="Markers">
		<g id="lend22">
			<path d="M 0 0 L 2.25 -1.125 L 4.5 0 L 2.25 1.125 L 0 0 " style="stroke-linecap:round;stroke-linejoin:round;fill:none"/>
		</g>
		<marker id="mrkr22-140" class="st12" refX="26.46" orient="auto" markerUnits="strokeWidth" overflow="visible">
			<use xlink:href="#lend22" transform="scale(6.04) "/>
		</marker>
	</defs>
	<g>
		<title>Zeichenblatt-1</title>
		<g id="group1-1" transform="translate(21.2598,-627.266)">
			<title>Klasse</title>
			<desc>Kunde</desc>
			<g id="shape2-2">
				<title>Tabelle.2</title>
				<path d="M0 841.89 L184.25 841.89 L184.25 749.38 L0 749.38 L0 841.89 Z" class="st1"/>
			</g>
			<g id="shape3-4" transform="translate(0,-92.5114)">
				<title>Tabelle.3</title>
				<path d="M0 841.89 L184.25 841.89 L184.25 810.49 L0 810.49 L0 841.89 Z" class="st2"/>
			</g>
			<g id="shape5-6" transform="translate(175.748,-123.915)">
				<title>Tabelle.5</title>
				<desc>Parameter</desc>
			</g>
			<g id="shape1-7">
				<text x="4" y="737.28" class="st3">Kunde</text>			</g>
		</g>
		<g id="shape6-9" transform="translate(24.0945,-704.939)">
			<title>Mitglied</title>
			<desc>Stammdaten</desc>
			<rect x="0" y="829.886" width="178.583" height="12.0036" class="st4"/>
			<rect x="0" y="829.886" width="178.583" height="12.0036" class="st5"/>
			<text x="8.5" y="838.89" class="st6">Stammdaten</text>		</g>
		<g id="shape7-13" transform="translate(24.0945,-702.104)">
			<title>Trennzeichen</title>
			<path d="M0 840.47 L178.58 840.47 L0 840.47 Z" class="st7"/>
			<path d="M0 840.47 L178.58 840.47" class="st8"/>
		</g>
		<g id="shape8-16" transform="translate(24.0945,-630.101)">
			<title>Mitglied.8</title>
			<desc>abrechnung ausleihe berechneUmsatz rueckgabe transaktionenSam...</desc>
			<rect x="0" y="769.886" width="178.583" height="72.0038" class="st4"/>
			<rect x="0" y="769.886" width="178.583" height="72.0038" class="st5"/>
			<text x="8.5" y="778.89" class="st6">abrechnung <tspan x="8.5" dy="1.2em" class="st9">ausleihe </tspan><tspan x="8.5"
						dy="1.2em" class="st9">berechneUmsatz </tspan><tspan x="8.5" dy="1.2em" class="st9">rueckgabe </tspan><tspan
						x="8.5" dy="1.2em" class="st9">transaktionenSammeln </tspan><tspan x="8.5" dy="1.2em" class="st9">verlustMelden</tspan></text>		</g>
		<g id="group9-25" transform="translate(205.512,-212.268)">
			<title>Klasse.9</title>
			<desc>Rechnungspunkt</desc>
			<g id="shape10-26">
				<title>Tabelle.10</title>
				<path d="M0 841.89 L184.25 841.89 L184.25 785.38 L0 785.38 L0 841.89 Z" class="st1"/>
			</g>
			<g id="shape11-28" transform="translate(0,-56.5076)">
				<title>Tabelle.11</title>
				<path d="M0 841.89 L184.25 841.89 L184.25 810.49 L0 810.49 L0 841.89 Z" class="st2"/>
			</g>
			<g id="shape13-30" transform="translate(175.748,-87.9114)">
				<title>Tabelle.13</title>
				<desc>Parameter</desc>
			</g>
			<g id="shape9-31">
				<text x="4" y="773.28" class="st3">Rechnungspunkt</text>			</g>
		</g>
		<g id="shape14-33" transform="translate(208.346,-229.937)">
			<title>Mitglied.14</title>
			<desc>Uhrzeit Menge Betrag</desc>
			<rect x="0" y="805.886" width="178.583" height="36.0037" class="st4"/>
			<rect x="0" y="805.886" width="178.583" height="36.0037" class="st5"/>
			<text x="8.5" y="814.89" class="st6">Uhrzeit <tspan x="8.5" dy="1.2em" class="st9">Menge </tspan><tspan x="8.5"
						dy="1.2em" class="st9">Betrag</tspan></text>		</g>
		<g id="shape15-39" transform="translate(208.346,-227.102)">
			<title>Trennzeichen.15</title>
			<path d="M0 840.47 L178.58 840.47 L0 840.47 Z" class="st7"/>
			<path d="M0 840.47 L178.58 840.47" class="st8"/>
		</g>
		<g id="shape16-42" transform="translate(208.346,-215.102)">
			<title>Mitglied.16</title>
			<rect x="0" y="829.89" width="178.583" height="12" class="st4"/>
			<rect x="0" y="829.89" width="178.583" height="12" class="st5"/>
		</g>
		<g id="group17-45" transform="translate(389.764,-423.172)">
			<title>Klasse.17</title>
			<desc>Lagerposten</desc>
			<g id="shape18-46">
				<title>Tabelle.18</title>
				<path d="M0 841.89 L184.25 841.89 L184.25 689.38 L0 689.38 L0 841.89 Z" class="st1"/>
			</g>
			<g id="shape19-48" transform="translate(0,-152.512)">
				<title>Tabelle.19</title>
				<path d="M0 841.89 L184.25 841.89 L184.25 810.49 L0 810.49 L0 841.89 Z" class="st2"/>
			</g>
			<g id="shape21-50" transform="translate(175.748,-183.915)">
				<title>Tabelle.21</title>
				<desc>Parameter</desc>
			</g>
			<g id="shape17-51">
				<text x="4" y="677.28" class="st3">Lagerposten</text>			</g>
		</g>
		<g id="shape22-53" transform="translate(392.598,-524.845)">
			<title>Mitglied.22</title>
			<desc>Name Preis pro Einheit Leihgebühr Bestand</desc>
			<rect x="0" y="793.886" width="178.583" height="48.0037" class="st4"/>
			<rect x="0" y="793.886" width="178.583" height="48.0037" class="st5"/>
			<text x="8.5" y="802.89" class="st6">Name <tspan x="8.5" dy="1.2em" class="st9">Preis pro Einheit </tspan><tspan
						x="8.5" dy="1.2em" class="st9">Leihgebühr </tspan><tspan x="8.5" dy="1.2em" class="st9">Bestand</tspan></text>		</g>
		<g id="shape23-60" transform="translate(392.598,-522.011)">
			<title>Trennzeichen.23</title>
			<path d="M0 840.47 L178.58 840.47 L0 840.47 Z" class="st7"/>
			<path d="M0 840.47 L178.58 840.47" class="st8"/>
		</g>
		<g id="shape24-63" transform="translate(392.598,-426.007)">
			<title>Mitglied.24</title>
			<desc>ausleihePreis bestandAendern getBestand istVerleihbar istVerk...</desc>
			<rect x="0" y="745.886" width="178.583" height="96.0039" class="st4"/>
			<rect x="0" y="745.886" width="178.583" height="96.0039" class="st5"/>
			<text x="8.5" y="754.89" class="st6">ausleihePreis <tspan x="8.5" dy="1.2em" class="st9">bestandAendern </tspan><tspan
						x="8.5" dy="1.2em" class="st9">getBestand </tspan><tspan x="8.5" dy="1.2em" class="st9">istVerleihbar </tspan><tspan
						x="8.5" dy="1.2em" class="st9">istVerkaeuflich </tspan><tspan x="8.5" dy="1.2em" class="st9">kaufPreis </tspan><tspan
						x="8.5" dy="1.2em" class="st9">toString </tspan><tspan x="8.5" dy="1.2em" class="st9">verlustGebuehr</tspan></text>		</g>
		<g id="group25-74" transform="translate(262.205,-621.34)">
			<title>Klasse.25</title>
			<desc>Ausleihe</desc>
			<g id="shape26-75">
				<title>Tabelle.26</title>
				<path d="M0 841.89 L184.25 841.89 L184.25 737.38 L0 737.38 L0 841.89 Z" class="st1"/>
			</g>
			<g id="shape27-77" transform="translate(0,-104.511)">
				<title>Tabelle.27</title>
				<path d="M0 841.89 L184.25 841.89 L184.25 810.49 L0 810.49 L0 841.89 Z" class="st2"/>
			</g>
			<g id="shape29-79" transform="translate(175.748,-135.915)">
				<title>Tabelle.29</title>
				<desc>Parameter</desc>
			</g>
			<g id="shape25-80">
				<text x="4" y="725.28" class="st3">Ausleihe</text>			</g>
		</g>
		<g id="shape30-82" transform="translate(265.039,-699.013)">
			<title>Mitglied.30</title>
			<desc>Uhrzeit Menge</desc>
			<rect x="0" y="817.886" width="178.583" height="24.0037" class="st4"/>
			<rect x="0" y="817.886" width="178.583" height="24.0037" class="st5"/>
			<text x="8.5" y="826.89" class="st6">Uhrzeit <tspan x="8.5" dy="1.2em" class="st9">Menge</tspan></text>		</g>
		<g id="shape31-87" transform="translate(265.039,-696.179)">
			<title>Trennzeichen.31</title>
			<path d="M0 840.47 L178.58 840.47 L0 840.47 Z" class="st7"/>
			<path d="M0 840.47 L178.58 840.47" class="st8"/>
		</g>
		<g id="shape32-90" transform="translate(265.039,-624.175)">
			<title>Mitglied.32</title>
			<desc>buchen getMenge getPosten getZeit verlust rueckgabe</desc>
			<rect x="0" y="769.886" width="178.583" height="72.0038" class="st4"/>
			<rect x="0" y="769.886" width="178.583" height="72.0038" class="st5"/>
			<text x="8.5" y="778.89" class="st6">buchen <tspan x="8.5" dy="1.2em" class="st9">getMenge </tspan><tspan x="8.5"
						dy="1.2em" class="st9">getPosten </tspan><tspan x="8.5" dy="1.2em" class="st9">getZeit </tspan><tspan
						x="8.5" dy="1.2em" class="st9">verlust </tspan><tspan x="8.5" dy="1.2em" class="st9">rueckgabe</tspan></text>		</g>
		<g id="group33-99" transform="translate(21.2598,-435.36)">
			<title>Klasse.33</title>
			<desc>Betrieb</desc>
			<g id="shape34-100">
				<title>Tabelle.34</title>
				<path d="M0 841.89 L184.25 841.89 L184.25 713.38 L0 713.38 L0 841.89 Z" class="st1"/>
			</g>
			<g id="shape35-102" transform="translate(0,-128.512)">
				<title>Tabelle.35</title>
				<path d="M0 841.89 L184.25 841.89 L184.25 810.49 L0 810.49 L0 841.89 Z" class="st2"/>
			</g>
			<g id="shape37-104" transform="translate(175.748,-159.915)">
				<title>Tabelle.37</title>
				<desc>Parameter</desc>
			</g>
			<g id="shape33-105">
				<text x="4" y="701.28" class="st3">Betrieb</text>			</g>
		</g>
		<g id="shape38-107" transform="translate(24.0945,-549.034)">
			<title>Mitglied.38</title>
			<desc>Uhr</desc>
			<rect x="0" y="829.886" width="178.583" height="12.0036" class="st4"/>
			<rect x="0" y="829.886" width="178.583" height="12.0036" class="st5"/>
			<text x="8.5" y="838.89" class="st6">Uhr</text>		</g>
		<g id="shape39-111" transform="translate(24.0945,-546.199)">
			<title>Trennzeichen.39</title>
			<path d="M0 840.47 L178.58 840.47 L0 840.47 Z" class="st7"/>
			<path d="M0 840.47 L178.58 840.47" class="st8"/>
		</g>
		<g id="shape40-114" transform="translate(24.0945,-438.195)">
			<title>Mitglied.40</title>
			<desc>abrechnung anDerUhrDrehen bestandAuflisten datenAendern trans...</desc>
			<rect x="0" y="733.886" width="178.583" height="108.004" class="st4"/>
			<rect x="0" y="733.886" width="178.583" height="108.004" class="st5"/>
			<text x="8.5" y="742.89" class="st6">abrechnung <tspan x="8.5" dy="1.2em" class="st9">anDerUhrDrehen </tspan><tspan
						x="8.5" dy="1.2em" class="st9">bestandAuflisten </tspan><tspan x="8.5" dy="1.2em" class="st9">datenAendern </tspan><tspan
						x="8.5" dy="1.2em" class="st9">transaktionen </tspan><tspan x="8.5" dy="1.2em" class="st9">umsatzBericht </tspan><tspan
						x="8.5" dy="1.2em" class="st9">verkaufen </tspan><tspan x="8.5" dy="1.2em" class="st9">verleih </tspan><tspan
						x="8.5" dy="1.2em" class="st9">verlust</tspan></text>		</g>
		<g id="group56-126" transform="translate(106.299,-595.276)">
			<title>Zusammensetzung</title>
			<g id="shape56-127">
				<path d="M7.09 841.89 L7.09 809.9" class="st10"/>
			</g>
		</g>
		<g id="group81-130" transform="translate(205.512,-682.174)">
			<title>Zusammensetzung.81</title>
			<g id="shape81-131">
				<path d="M0 834.84 L36 834.84 L36 834.77 L56.69 834.77" class="st10"/>
			</g>
		</g>
		<g id="group91-134" transform="translate(446.457,-689.298)">
			<title>Aggregation</title>
			<g id="shape91-135">
				<path d="M13.23 841.89 L13.59 841.89 L35.43 841.89 L35.43 924.1" class="st11"/>
			</g>
		</g>
		<g id="group106-141" transform="translate(18,-113.386)">
			<title>Klasse.106</title>
			<desc>Verlust</desc>
			<g id="shape107-142">
				<title>Tabelle.107</title>
				<path d="M0 841.89 L184.25 841.89 L184.25 809.38 L0 809.38 L0 841.89 Z" class="st1"/>
			</g>
			<g id="shape108-144" transform="translate(0,-32.5076)">
				<title>Tabelle.108</title>
				<path d="M0 841.89 L184.25 841.89 L184.25 810.49 L0 810.49 L0 841.89 Z" class="st2"/>
			</g>
			<g id="shape110-146" transform="translate(175.748,-63.9113)">
				<title>Tabelle.110</title>
				<desc>Parameter</desc>
			</g>
			<g id="shape106-147">
				<text x="4" y="797.28" class="st3">Verlust</text>			</g>
		</g>
		<g id="shape111-149" transform="translate(20.8346,-131.055)">
			<title>Mitglied.111</title>
			<desc>Posten</desc>
			<rect x="0" y="829.886" width="178.583" height="12.0036" class="st4"/>
			<rect x="0" y="829.886" width="178.583" height="12.0036" class="st5"/>
			<text x="8.5" y="838.89" class="st6">Posten</text>		</g>
		<g id="shape112-153" transform="translate(20.8346,-128.22)">
			<title>Trennzeichen.112</title>
			<path d="M0 840.47 L178.58 840.47 L0 840.47 Z" class="st7"/>
			<path d="M0 840.47 L178.58 840.47" class="st8"/>
		</g>
		<g id="shape113-156" transform="translate(20.8346,-116.22)">
			<title>Mitglied.113</title>
			<rect x="0" y="829.89" width="178.583" height="12" class="st4"/>
			<rect x="0" y="829.89" width="178.583" height="12" class="st5"/>
		</g>
		<g id="group114-159" transform="translate(393.024,-113.386)">
			<title>Klasse.114</title>
			<desc>Verkauf</desc>
			<g id="shape115-160">
				<title>Tabelle.115</title>
				<path d="M0 841.89 L184.25 841.89 L184.25 809.38 L0 809.38 L0 841.89 Z" class="st1"/>
			</g>
			<g id="shape116-162" transform="translate(0,-32.5076)">
				<title>Tabelle.116</title>
				<path d="M0 841.89 L184.25 841.89 L184.25 810.49 L0 810.49 L0 841.89 Z" class="st2"/>
			</g>
			<g id="shape118-164" transform="translate(175.748,-63.9113)">
				<title>Tabelle.118</title>
				<desc>Parameter</desc>
			</g>
			<g id="shape114-165">
				<text x="4" y="797.28" class="st3">Verkauf</text>			</g>
		</g>
		<g id="shape119-167" transform="translate(395.858,-131.055)">
			<title>Mitglied.119</title>
			<desc>Posten</desc>
			<rect x="0" y="829.886" width="178.583" height="12.0036" class="st4"/>
			<rect x="0" y="829.886" width="178.583" height="12.0036" class="st5"/>
			<text x="8.5" y="838.89" class="st6">Posten</text>		</g>
		<g id="shape120-171" transform="translate(395.858,-128.22)">
			<title>Trennzeichen.120</title>
			<path d="M0 840.47 L178.58 840.47 L0 840.47 Z" class="st7"/>
			<path d="M0 840.47 L178.58 840.47" class="st8"/>
		</g>
		<g id="shape121-174" transform="translate(395.858,-116.22)">
			<title>Mitglied.121</title>
			<rect x="0" y="829.89" width="178.583" height="12" class="st4"/>
			<rect x="0" y="829.89" width="178.583" height="12" class="st5"/>
		</g>
		<g id="group122-177" transform="translate(205.512,-113.386)">
			<title>Klasse.122</title>
			<desc>Verleih</desc>
			<g id="shape123-178">
				<title>Tabelle.123</title>
				<path d="M0 841.89 L184.25 841.89 L184.25 809.38 L0 809.38 L0 841.89 Z" class="st1"/>
			</g>
			<g id="shape124-180" transform="translate(0,-32.5076)">
				<title>Tabelle.124</title>
				<path d="M0 841.89 L184.25 841.89 L184.25 810.49 L0 810.49 L0 841.89 Z" class="st2"/>
			</g>
			<g id="shape126-182" transform="translate(175.748,-63.9113)">
				<title>Tabelle.126</title>
				<desc>Parameter</desc>
			</g>
			<g id="shape122-183">
				<text x="4" y="797.28" class="st3">Verleih</text>			</g>
		</g>
		<g id="shape127-185" transform="translate(208.346,-131.055)">
			<title>Mitglied.127</title>
			<desc>Posten</desc>
			<rect x="0" y="829.886" width="178.583" height="12.0036" class="st4"/>
			<rect x="0" y="829.886" width="178.583" height="12.0036" class="st5"/>
			<text x="8.5" y="838.89" class="st6">Posten</text>		</g>
		<g id="shape128-189" transform="translate(208.346,-128.22)">
			<title>Trennzeichen.128</title>
			<path d="M0 840.47 L178.58 840.47 L0 840.47 Z" class="st7"/>
			<path d="M0 840.47 L178.58 840.47" class="st8"/>
		</g>
		<g id="shape129-192" transform="translate(208.346,-116.22)">
			<title>Mitglied.129</title>
			<rect x="0" y="829.89" width="178.583" height="12" class="st4"/>
			<rect x="0" y="829.89" width="178.583" height="12" class="st5"/>
		</g>
		<g id="group150-195" transform="translate(205.512,-256.223)">
			<title>Zusammensetzung.150</title>
			<g id="shape150-196">
				<path d="M0 841.89 L-95.39 841.89 L-95.39 920.82" class="st10"/>
			</g>
		</g>
		<g id="group155-199" transform="translate(290.551,-212.268)">
			<title>Zusammensetzung.155</title>
			<g id="shape155-200">
				<path d="M7.09 841.89 L7.09 876.86" class="st10"/>
			</g>
		</g>
		<g id="group160-203" transform="translate(389.764,-256.223)">
			<title>Zusammensetzung.160</title>
			<g id="shape160-204">
				<path d="M0 841.89 L95.39 841.89 L95.39 920.82" class="st10"/>
			</g>
		</g>
		<g id="group175-207" transform="translate(354.331,-621.34)">
			<title>Zusammensetzung.175</title>
			<g id="shape175-208">
				<path d="M0 841.89 L0 877.89 L-56.69 877.89 L-56.69 1163.05" class="st10"/>
			</g>
		</g>
		<g id="group181-211" transform="translate(205.512,-689.224)">
			<title>Zusammensetzung.181</title>
			<g id="shape181-212">
				<path d="M0 841.89 L43.09 841.89 L43.09 1225.27 L92.13 1225.27" class="st10"/>
			</g>
		</g>
		<g id="group186-215" transform="translate(205.512,-522.31)">
			<title>Zusammensetzung.186</title>
			<g id="shape186-216">
				<path d="M0 848.88 L36 848.88 L36 849.07 L40.72 849.07 A2.3622 2.3622 0 0 1 45.45 849.07 L89.76 849.07 A2.3622 2.3622
							 0 0 1 94.49 849.07 L184.25 849.07" class="st10"/>
			</g>
		</g>
	</g>
</svg>
